<svg height="34" viewBox="0 0 24 24" width="34" xmlns="http://www.w3.org/2000/svg" class="sc-cfxfcM chgrbA"><path d="m17.25 6.25h-1.75c0-1.93375-1.5662-3.5-3.5-3.5s-3.5 1.56625-3.5 3.5h-1.75c-.9625 0-1.75.7875-1.75 1.75v10.5c0 .9625.7875 1.75 1.75 1.75h10.5c.9625 0 1.75-.7875 1.75-1.75v-10.5c0-.9625-.7875-1.75-1.75-1.75zm-5.25-1.75c.9625 0 1.75.7875 1.75 1.75h-3.5c0-.9625.7875-1.75 1.75-1.75zm5.25 14h-10.5v-10.5h1.75v1.75c0 .4812.39375.875.875.875s.875-.3938.875-.875v-1.75h3.5v1.75c0 .4812.3938.875.875.875s.875-.3938.875-.875v-1.75h1.75z"></path></svg>